<?xml version="1.0" encoding="utf-8"?>
<!-- Generator: Adobe Illustrator 22.1.0, SVG Export Plug-In . SVG Version: 6.00 Build 0)  -->
<svg version="1.1" id="Capa_1" xmlns="http://www.w3.org/2000/svg" xmlns:xlink="http://www.w3.org/1999/xlink" x="0px" y="0px"
	 viewBox="0 0 283.8 308" style="enable-background:new 0 0 283.8 308;" xml:space="preserve">
<style type="text/css">
	.st0{fill:#FFFFFF;}
</style>
<g>
	<g>
		<path class="st0" d="M94.4,249c-18.8-3-17.6-11.4-17.1-15c0.4-3.3,1.5-11.1,19.8-11.1c9.4,0,14.7,3.6,17.5,6.7
			c2.2,2.4,5.7,3.1,8.7,2h0c5.2-2,6.8-8.5,3.1-12.6c-5.2-5.7-14.3-12-29.4-12c-28.2,0-34.5,15.6-35.7,24.9c-1.1,8.3-0.4,28,30.5,33
			c24.5,3.9,25.8,9.4,25.1,15.1c-0.4,3-1.5,11.1-22,11.1c-10.5,0-16.5-3.9-19.6-7.1c-2.2-2.2-5.5-2.9-8.4-1.7l-0.2,0.1
			c-5.3,2.1-6.6,8.9-2.6,13c5.5,5.6,15.2,11.7,30.9,11.7c30.1,0,36.6-15.6,37.9-24.9C136.3,255.7,106.9,251,94.4,249z M12.9,166.9
			c-6.6,0-12,5.4-12,12c0,6.6,5.4,12,12,12s12-5.4,12-12C24.9,172.3,19.5,166.9,12.9,166.9z M12.9,210.9c-4.4,0-8,3.6-8,8v76
			c0,4.4,3.6,8,8,8s8-3.6,8-8v-76C20.9,214.4,17.3,210.9,12.9,210.9z M274.9,287.5h-4.3c-4.3,0-7.8-3.5-7.8-7.8v-62.3
			c0-4.4-3.6-8-8-8s-8,3.6-8,8v2.8c-8.9-8.3-20.9-13.4-34-13.4c-27.6,0-50,22.4-50,50s22.4,50,50,50c14.5,0,27.6-6.2,36.7-16.1
			c4,7.5,11.9,12.7,21,12.7h4.3c4.4,0,8-3.6,8-8S279.3,287.5,274.9,287.5z M212.9,290.9c-18.7,0-34-15.3-34-34s15.3-34,34-34
			s34,15.3,34,34S231.7,290.9,212.9,290.9z M214.9,120.3V47.5c0-3.6-1.9-6.9-5-8.7l-63-36.4c-3.1-1.8-6.9-1.8-10,0l-63,36.4
			c-3.1,1.8-5,5.1-5,8.7v72.7c0,3.6,1.9,6.9,5,8.7l63,36.4c3.1,1.8,6.9,1.8,10,0l63-36.4C213,127.1,214.9,123.8,214.9,120.3z"/>
	</g>
</g>
</svg>
