<?xml version="1.0" encoding="utf-8"?>
<!-- Generator: Adobe Illustrator 22.1.0, SVG Export Plug-In . SVG Version: 6.00 Build 0)  -->
<svg version="1.1" id="Capa_1" xmlns="http://www.w3.org/2000/svg" xmlns:xlink="http://www.w3.org/1999/xlink" x="0px" y="0px"
	 viewBox="0 0 170 170" style="enable-background:new 0 0 170 170;" xml:space="preserve">
<style type="text/css">
	.st0{fill:#7E7E7E;}
	.st1{fill:#D9D9D9;}
</style>
<circle class="st0" cx="85" cy="85" r="85"/>
<g>
	<path class="st1" d="M36.4,94.4h4.5c1.1,0,2-0.9,2-2v-1.1c0-1.1-0.9-2-2-2h-4.5c-1.1,0-2,0.9-2,2v1.1
		C34.4,93.5,35.3,94.4,36.4,94.4z"/>
	<path class="st1" d="M49.2,94.4h4.5c1.1,0,2-0.9,2-2v-1.1c0-1.1-0.9-2-2-2h-4.5c-1.1,0-2,0.9-2,2v1.1
		C47.2,93.5,48.1,94.4,49.2,94.4z"/>
	<path class="st1" d="M40.9,104.6c1.1,0,2-0.9,2-2v-1.1c0-1.1-0.9-2-2-2h-4.5c-1.1,0-2,0.9-2,2v1.1c0,1.1,0.9,2,2,2H40.9z"/>
	<path class="st1" d="M49.2,104.6h4.5c1.1,0,2-0.9,2-2v-1.1c0-1.1-0.9-2-2-2h-4.5c-1.1,0-2,0.9-2,2v1.1
		C47.2,103.7,48.1,104.6,49.2,104.6z"/>
	<path class="st1" d="M69.1,90.1h4.5c1.1,0,2-0.9,2-2V87c0-1.1-0.9-2-2-2h-4.5c-1.1,0-2,0.9-2,2v1.1C67.1,89.2,68,90.1,69.1,90.1z"
		/>
	<path class="st1" d="M81.9,90.1h4.5c1.1,0,2-0.9,2-2V87c0-1.1-0.9-2-2-2h-4.5c-1.1,0-2,0.9-2,2v1.1C79.9,89.2,80.8,90.1,81.9,90.1z
		"/>
	<path class="st1" d="M69.1,100.3h4.5c1.1,0,2-0.9,2-2v-1.1c0-1.1-0.9-2-2-2h-4.5c-1.1,0-2,0.9-2,2v1.1
		C67.1,99.4,68,100.3,69.1,100.3z"/>
	<path class="st1" d="M81.9,100.3h4.5c1.1,0,2-0.9,2-2v-1.1c0-1.1-0.9-2-2-2h-4.5c-1.1,0-2,0.9-2,2v1.1
		C79.9,99.4,80.8,100.3,81.9,100.3z"/>
	<path class="st1" d="M69.1,69.7h4.5c1.1,0,2-0.9,2-2v-1.1c0-1.1-0.9-2-2-2h-4.5c-1.1,0-2,0.9-2,2v1.1C67.1,68.8,68,69.7,69.1,69.7z
		"/>
	<path class="st1" d="M81.9,69.7h4.5c1.1,0,2-0.9,2-2v-1.1c0-1.1-0.9-2-2-2h-4.5c-1.1,0-2,0.9-2,2v1.1
		C79.9,68.8,80.8,69.7,81.9,69.7z"/>
	<path class="st1" d="M69.1,79.9h4.5c1.1,0,2-0.9,2-2v-1.1c0-1.1-0.9-2-2-2h-4.5c-1.1,0-2,0.9-2,2v1.1C67.1,79,68,79.9,69.1,79.9z"
		/>
	<path class="st1" d="M81.9,79.9h4.5c1.1,0,2-0.9,2-2v-1.1c0-1.1-0.9-2-2-2h-4.5c-1.1,0-2,0.9-2,2v1.1C79.9,79,80.8,79.9,81.9,79.9z
		"/>
	<path class="st1" d="M104,103.7h4.5c1.1,0,2-0.9,2-2v-1.1c0-1.1-0.9-2-2-2H104c-1.1,0-2,0.9-2,2v1.1
		C102,102.8,102.9,103.7,104,103.7z"/>
	<path class="st1" d="M104,83.3h4.5c1.1,0,2-0.9,2-2v-1.1c0-1.1-0.9-2-2-2H104c-1.1,0-2,0.9-2,2v1.1C102,82.4,102.9,83.3,104,83.3z"
		/>
	<path class="st1" d="M119.3,83.3h4.5c1.1,0,2-0.9,2-2v-1.1c0-1.1-0.9-2-2-2h-4.5c-1.1,0-2,0.9-2,2v1.1
		C117.3,82.4,118.2,83.3,119.3,83.3z"/>
	<path class="st1" d="M104,93.5h4.5c1.1,0,2-0.9,2-2v-1.1c0-1.1-0.9-2-2-2H104c-1.1,0-2,0.9-2,2v1.1C102,92.6,102.9,93.5,104,93.5z"
		/>
	<path class="st1" d="M132.3,96.1h-4.5c-1.1,0-2,0.9-2,2v1.1c0,1.1,0.9,2,2,2h4.5c1.1,0,2-0.9,2-2v-1.1
		C134.3,96.9,133.4,96.1,132.3,96.1z"/>
	<path class="st1" d="M132.3,106.3h-4.5c-1.1,0-2,0.9-2,2v1.1c0,1.1,0.9,2,2,2h4.5c1.1,0,2-0.9,2-2v-1.1
		C134.3,107.1,133.4,106.3,132.3,106.3z"/>
	<path class="st1" d="M148.3,133.7c1.1,0,2-0.9,2-2s-0.9-2-2-2h-5.2V89.3c0-1.1-0.9-2-2-2h-5.6v-15c0-1.1-0.9-2-2-2H96.3v-15
		c0-1.1-0.9-2-2-2h-2.7v-4.8c0-1.1-0.9-2-2-2h-3.1v-8.2c0-1.1-0.9-2-2-2H71c-1.1,0-2,0.9-2,2v8.2h-3.1c-1.1,0-2,0.9-2,2v4.8h-2.7
		c-1.1,0-2,0.9-2,2v25.2H28.9c-1.1,0-2,0.9-2,2v47.3h-5.2c-1.1,0-2,0.9-2,2s0.9,2,2,2H148.3z M73,40.3h9.6v6.2H73V40.3z M67.9,50.4
		H71h13.6h3.1v2.8H67.9V50.4z M30.9,84.4h28.3v45.3h-7.1v-18.4c0-1.1-0.9-2-2-2H40c-1.1,0-2,0.9-2,2v18.4h-7.1V84.4z M42,129.7
		v-16.4h6.2v16.4H42z M63.2,82.4V57.3h2.7h23.8h2.7v15v57.5h-5.8v-20.1c0-1.1-0.9-2-2-2H71c-1.1,0-2,0.9-2,2v20.1h-5.8V82.4z
		 M73,129.7v-18.1h9.6v18.1H73z M96.3,74.3h35.1v13H119c-1.1,0-2,0.9-2,2v40.5h-2.8v-18.4c0-1.1-0.9-2-2-2h-11.9c-1.1,0-2,0.9-2,2
		v18.4h-2V74.3z M102.3,129.7v-16.4h7.9v16.4H102.3z M127,129.7v-11.3h6.2v11.3H127z M137.1,129.7v-13.3c0-1.1-0.9-2-2-2H125
		c-1.1,0-2,0.9-2,2v13.3h-2V91.3h18.1v38.5H137.1z"/>
</g>
</svg>
