<?xml version="1.0" encoding="utf-8"?>
<!-- Generator: Adobe Illustrator 22.1.0, SVG Export Plug-In . SVG Version: 6.00 Build 0)  -->
<svg version="1.1" id="Capa_1" xmlns="http://www.w3.org/2000/svg" xmlns:xlink="http://www.w3.org/1999/xlink" x="0px" y="0px"
	 viewBox="0 0 458 168" style="enable-background:new 0 0 458 168;" xml:space="preserve">
<style type="text/css">
	.st0{fill:#FFFFFF;}
</style>
<g>
	<g>
		<path class="st0" d="M188,4.5c-6.6,0-12,5.4-12,12c0,6.6,5.4,12,12,12s12-5.4,12-12C200,9.9,194.6,4.5,188,4.5z M141,39.5L78,3.1
			c-3.1-1.8-6.9-1.8-10,0L5,39.5c-3.1,1.8-5,5.1-5,8.7v72.7c0,3.6,1.9,6.9,5,8.7l63,36.4c3.1,1.8,6.9,1.8,10,0l63-36.4
			c3.1-1.8,5-5.1,5-8.7V48.1C146,44.5,144.1,41.2,141,39.5z M188,48.5c-4.4,0-8,3.6-8,8v76c0,4.4,3.6,8,8,8s8-3.6,8-8v-76
			C196,52.1,192.4,48.5,188,48.5z M450,125.1h-4.3c-4.3,0-7.8-3.5-7.8-7.8V55.1c0-4.4-3.6-8-8-8s-8,3.6-8,8v2.8
			c-8.9-8.3-20.9-13.4-34-13.4c-27.6,0-50,22.4-50,50s22.4,50,50,50c14.5,0,27.6-6.2,36.7-16.1c4,7.5,11.9,12.7,21,12.7h4.3
			c4.4,0,8-3.6,8-8S454.4,125.1,450,125.1z M388,128.5c-18.7,0-34-15.3-34-34s15.3-34,34-34s34,15.3,34,34S406.7,128.5,388,128.5z
			 M269.4,86.6c-18.8-3-17.6-11.4-17.1-15c0.4-3.3,1.5-11.1,19.8-11.1c9.4,0,14.7,3.6,17.5,6.7c2.2,2.4,5.7,3.1,8.7,2h0
			c5.2-2,6.8-8.5,3.1-12.6c-5.2-5.7-14.3-12-29.4-12c-28.2,0-34.5,15.6-35.7,24.9c-1.1,8.3-0.4,28,30.5,33
			c24.5,3.9,25.8,9.4,25.1,15.1c-0.4,3-1.5,11.1-22,11.1c-10.5,0-16.5-3.9-19.6-7.1c-2.2-2.2-5.5-2.9-8.4-1.7l-0.2,0.1
			c-5.3,2.1-6.6,8.9-2.6,13c5.5,5.6,15.2,11.7,30.9,11.7c30.1,0,36.6-15.6,37.9-24.9C311.3,93.3,282,88.6,269.4,86.6z"/>
	</g>
</g>
</svg>
