<?xml version="1.0" encoding="utf-8"?>
<!-- Generator: Adobe Illustrator 22.1.0, SVG Export Plug-In . SVG Version: 6.00 Build 0)  -->
<svg version="1.1" id="Capa_1" xmlns="http://www.w3.org/2000/svg" xmlns:xlink="http://www.w3.org/1999/xlink" x="0px" y="0px"
	 viewBox="0 0 75 58" style="enable-background:new 0 0 75 58;" xml:space="preserve">
<style type="text/css">
	.st0{fill:#EB001B;}
	.st1{fill:#F79E1B;}
	.st2{fill:#FF5F00;}
</style>
<g>
	<path d="M14,57.6v-3.8c0-1.5-0.9-2.4-2.4-2.4c-0.8,0-1.6,0.3-2.2,1.1c-0.4-0.7-1.1-1.1-2-1.1c-0.6,0-1.3,0.2-1.8,0.9v-0.8H4.2v6.1
		h1.3v-3.4c0-1.1,0.6-1.6,1.5-1.6s1.3,0.6,1.3,1.6v3.4h1.3v-3.4c0-1.1,0.6-1.6,1.5-1.6c0.9,0,1.3,0.6,1.3,1.6v3.4H14L14,57.6z
		 M33.7,51.5h-2.2v-1.8h-1.3v1.8H29v1.2h1.2v2.8c0,1.4,0.6,2.2,2.1,2.2c0.6,0,1.2-0.2,1.7-0.4l-0.4-1.1c-0.4,0.3-0.8,0.3-1.1,0.3
		c-0.6,0-0.9-0.4-0.9-1v-2.7h2.2V51.5L33.7,51.5z M45,51.4c-0.8,0-1.3,0.4-1.6,0.9v-0.8h-1.3v6.1h1.3v-3.4c0-1,0.4-1.6,1.3-1.6
		c0.3,0,0.6,0.1,0.8,0.1l0.4-1.3C45.7,51.4,45.3,51.4,45,51.4L45,51.4L45,51.4z M27.9,52c-0.6-0.4-1.5-0.6-2.5-0.6
		c-1.5,0-2.5,0.8-2.5,2c0,1,0.8,1.6,2.1,1.8l0.6,0.1c0.7,0.1,1.1,0.3,1.1,0.6c0,0.4-0.5,0.8-1.4,0.8s-1.6-0.3-2-0.6l-0.6,1
		c0.7,0.5,1.7,0.8,2.6,0.8c1.8,0,2.8-0.8,2.8-2c0-1.1-0.8-1.7-2.1-1.8l-0.6-0.1c-0.6-0.1-1-0.2-1-0.6c0-0.4,0.4-0.7,1.1-0.7
		c0.8,0,1.5,0.3,1.9,0.5L27.9,52L27.9,52z M63.4,51.4c-0.8,0-1.3,0.4-1.6,0.9v-0.8h-1.3v6.1h1.3v-3.4c0-1,0.4-1.6,1.3-1.6
		c0.3,0,0.6,0.1,0.8,0.1l0.4-1.3C64,51.4,63.6,51.4,63.4,51.4L63.4,51.4L63.4,51.4z M46.4,54.5c0,1.8,1.3,3.2,3.2,3.2
		c0.9,0,1.5-0.2,2.2-0.7l-0.6-1.1c-0.5,0.4-1,0.6-1.6,0.6c-1.1,0-1.8-0.8-1.8-2c0-1.1,0.8-1.9,1.8-2c0.6,0,1.1,0.2,1.6,0.6l0.6-1.1
		c-0.6-0.5-1.3-0.7-2.2-0.7C47.6,51.4,46.4,52.7,46.4,54.5L46.4,54.5L46.4,54.5z M58.7,54.5v-3h-1.3v0.8c-0.4-0.6-1.1-0.9-1.9-0.9
		c-1.7,0-3,1.3-3,3.2c0,1.8,1.3,3.2,3,3.2c0.9,0,1.5-0.3,1.9-0.9v0.8h1.3V54.5z M53.8,54.5c0-1.1,0.7-2,1.8-2c1.1,0,1.8,0.8,1.8,2
		c0,1.1-0.8,2-1.8,2C54.5,56.4,53.8,55.6,53.8,54.5L53.8,54.5z M37.8,51.4c-1.8,0-3,1.3-3,3.2s1.3,3.2,3.1,3.2
		c0.9,0,1.8-0.3,2.5-0.8l-0.6-1c-0.5,0.4-1.1,0.6-1.8,0.6c-0.8,0-1.7-0.4-1.8-1.5h4.5v-0.5C40.7,52.6,39.6,51.4,37.8,51.4L37.8,51.4
		L37.8,51.4z M37.8,52.5c0.8,0,1.4,0.5,1.5,1.5h-3.2C36.3,53.1,36.9,52.5,37.8,52.5L37.8,52.5z M70.9,54.5v-5.5h-1.3v3.2
		c-0.4-0.6-1.1-0.9-1.9-0.9c-1.7,0-3,1.3-3,3.2c0,1.8,1.3,3.2,3,3.2c0.9,0,1.5-0.3,1.9-0.9v0.8h1.3V54.5z M66.1,54.5
		c0-1.1,0.7-2,1.8-2c1.1,0,1.8,0.8,1.8,2c0,1.1-0.8,2-1.8,2C66.8,56.4,66.1,55.6,66.1,54.5L66.1,54.5z M21.5,54.5v-3h-1.3v0.8
		c-0.4-0.6-1.1-0.9-1.9-0.9c-1.7,0-3,1.3-3,3.2c0,1.8,1.3,3.2,3,3.2c0.9,0,1.5-0.3,1.9-0.9v0.8h1.3V54.5z M16.5,54.5
		c0-1.1,0.7-2,1.8-2c1.1,0,1.8,0.8,1.8,2c0,1.1-0.8,2-1.8,2C17.2,56.4,16.5,55.6,16.5,54.5z"/>
	<path class="st0" d="M28.8,23.2c0-7.3,3.4-13.8,8.7-18c-3.9-3-8.8-4.9-14.1-4.9C10.7,0.3,0.5,10.5,0.5,23.2S10.7,46,23.4,46
		c5.3,0,10.2-1.8,14.1-4.9C32.2,37,28.8,30.5,28.8,23.2z"/>
	<path class="st1" d="M74.5,23.2C74.5,35.8,64.3,46,51.6,46c-5.3,0-10.2-1.8-14.1-4.9c5.3-4.2,8.7-10.7,8.7-18s-3.4-13.8-8.7-18
		c3.9-3,8.8-4.9,14.1-4.9C64.3,0.3,74.5,10.6,74.5,23.2z"/>
	<path class="st2" d="M46.2,23.2c0-7.3-3.4-13.8-8.7-18h-0.1c-5.3,4.2-8.7,10.7-8.7,18c0,7.3,3.4,13.8,8.7,18h0.1
		C42.9,36.9,46.2,30.5,46.2,23.2z"/>
</g>
</svg>
