<?xml version="1.0" encoding="utf-8"?>
<!-- Generator: Adobe Illustrator 22.1.0, SVG Export Plug-In . SVG Version: 6.00 Build 0)  -->
<svg version="1.1" id="Capa_1" xmlns="http://www.w3.org/2000/svg" xmlns:xlink="http://www.w3.org/1999/xlink" x="0px" y="0px"
	 viewBox="0 0 162 40" style="enable-background:new 0 0 162 40;" xml:space="preserve">
<style type="text/css">
	.st0{fill-rule:evenodd;clip-rule:evenodd;fill:#009DE2;}
	.st1{fill-rule:evenodd;clip-rule:evenodd;fill:#113984;}
	.st2{fill-rule:evenodd;clip-rule:evenodd;fill:#172C70;}
</style>
<g>
	<path class="st0" d="M15,9.7h10.9c5.9,0,8.1,3,7.7,7.3c-0.6,7.2-4.9,11.2-10.7,11.2H20c-0.8,0-1.3,0.5-1.5,1.9l-1.3,8.3
		c-0.1,0.5-0.4,0.9-0.8,0.9H9.6c-0.6,0-0.9-0.5-0.7-1.6l4.2-26.5C13.2,10.2,13.8,9.7,15,9.7z"/>
	<path class="st1" d="M62.4,9.3c3.7,0,7.1,2,6.6,7c-0.6,5.9-3.7,9.2-8.8,9.2h-4.4c-0.6,0-0.9,0.5-1.1,1.6L54,32.4
		c-0.1,0.8-0.5,1.2-1.2,1.2h-4.1c-0.6,0-0.9-0.4-0.7-1.3l3.4-21.6c0.2-1.1,0.6-1.5,1.3-1.5H62.4L62.4,9.3z M55.8,20.8l3.3,0
		c2.1-0.1,3.5-1.5,3.6-4.1c0.1-1.6-1-2.7-2.7-2.7l-3.1,0L55.8,20.8L55.8,20.8z M80.1,32c0.4-0.3,0.8-0.5,0.7-0.1l-0.1,1
		c-0.1,0.5,0.1,0.8,0.6,0.8h3.6c0.6,0,0.9-0.2,1.1-1.2l2.2-14c0.1-0.7-0.1-1-0.6-1h-4c-0.4,0-0.5,0.2-0.6,0.7l-0.1,0.9
		c-0.1,0.4-0.3,0.5-0.5,0.1c-0.7-1.6-2.4-2.3-4.8-2.3c-5.6,0.1-9.3,4.4-9.7,9.8c-0.3,4.2,2.7,7.5,6.7,7.5
		C77.4,34.1,78.7,33.3,80.1,32L80.1,32z M77.1,29.8c-2.4,0-4.1-1.9-3.7-4.3c0.3-2.3,2.6-4.3,5-4.3s4.1,1.9,3.7,4.3
		C81.7,27.9,79.5,29.8,77.1,29.8L77.1,29.8z M95.3,17.4h-3.7c-0.8,0-1.1,0.6-0.8,1.3L95.4,32l-4.5,6.3c-0.4,0.5-0.1,1,0.4,1h4.1
		c0.6,0,0.9-0.2,1.2-0.6l14-20.1c0.4-0.6,0.2-1.3-0.5-1.3l-3.9,0c-0.7,0-0.9,0.3-1.3,0.8l-5.8,8.5l-2.6-8.5
		C96.4,17.7,96,17.4,95.3,17.4z"/>
	<path class="st0" d="M125.3,9.3c3.7,0,7.1,2,6.6,7c-0.6,5.9-3.7,9.2-8.8,9.2h-4.4c-0.6,0-0.9,0.5-1.1,1.6l-0.8,5.4
		c-0.1,0.8-0.5,1.2-1.2,1.2h-4.1c-0.6,0-0.9-0.4-0.7-1.3l3.4-21.6c0.2-1.1,0.6-1.5,1.3-1.5H125.3L125.3,9.3z M118.6,20.8l3.3,0
		c2.1-0.1,3.5-1.5,3.6-4.1c0.1-1.6-1-2.7-2.7-2.7l-3.1,0L118.6,20.8L118.6,20.8z M143,32c0.4-0.3,0.8-0.5,0.7-0.1l-0.1,1
		c-0.1,0.5,0.1,0.8,0.6,0.8h3.6c0.6,0,0.9-0.2,1.1-1.2l2.2-14c0.1-0.7-0.1-1-0.6-1h-4c-0.4,0-0.5,0.2-0.6,0.7l-0.1,0.9
		c-0.1,0.4-0.3,0.5-0.5,0.1c-0.7-1.6-2.4-2.3-4.8-2.3c-5.6,0.1-9.3,4.4-9.7,9.8c-0.3,4.2,2.7,7.5,6.7,7.5
		C140.2,34.1,141.5,33.3,143,32L143,32z M139.9,29.8c-2.4,0-4.1-1.9-3.7-4.3c0.3-2.3,2.6-4.3,5-4.3c2.4,0,4.1,1.9,3.7,4.3
		C144.6,27.9,142.3,29.8,139.9,29.8L139.9,29.8z M156.6,33.7h-4.2c-0.3,0-0.6-0.3-0.5-0.6l3.7-23.2c0.1-0.3,0.4-0.6,0.7-0.6h4.2
		c0.3,0,0.6,0.3,0.5,0.6l-3.7,23.2C157.3,33.4,157,33.7,156.6,33.7z"/>
	<path class="st1" d="M8.1,0.6h10.9c3.1,0,6.7,0.1,9.2,2.3c1.6,1.4,2.5,3.7,2.3,6.2c-0.7,8.4-5.7,13-12.4,13h-5.4
		c-0.9,0-1.5,0.6-1.8,2.3L9.5,34c-0.1,0.6-0.4,1-0.9,1H1.9c-0.7,0-1-0.6-0.8-1.8L5.9,2.4C6.1,1.2,6.8,0.6,8.1,0.6z"/>
	<path class="st2" d="M11.1,23.4l1.9-12.1c0.2-1.1,0.7-1.6,1.9-1.6h10.9c1.8,0,3.3,0.3,4.4,0.8c-1.1,7.4-5.9,11.6-12.2,11.6h-5.4
		C12,22.1,11.5,22.5,11.1,23.4z"/>
</g>
</svg>
