<?xml version="1.0" encoding="utf-8"?>
<!-- Generator: Adobe Illustrator 22.1.0, SVG Export Plug-In . SVG Version: 6.00 Build 0)  -->
<svg version="1.1" id="Capa_1" xmlns="http://www.w3.org/2000/svg" xmlns:xlink="http://www.w3.org/1999/xlink" x="0px" y="0px"
	 viewBox="0 0 86 26" style="enable-background:new 0 0 86 26;" xml:space="preserve">
<style type="text/css">
	.st0{fill:#005098;}
	.st1{fill:#F7A600;}
</style>
<g>
	<polygon class="st0" points="37.7,25.5 31.2,25.5 35.2,0.5 41.8,0.5 	"/>
	<path class="st0" d="M25.7,0.5l-6.2,17.2L18.7,14l0,0L16.5,2.7c0,0-0.3-2.3-3.1-2.3H3.1L3,0.9c0,0,3.1,0.7,6.8,2.9l5.7,21.8h6.8
		L32.7,0.5H25.7z"/>
	<path class="st0" d="M77,25.5h6L77.8,0.5h-5.2c-2.4,0-3,1.9-3,1.9l-9.7,23.2h6.8l1.4-3.7h8.3L77,25.5z M69.8,16.7l3.4-9.4l1.9,9.4
		H69.8z"/>
	<path class="st0" d="M60.3,6.5l0.9-5.4c0,0-2.9-1.1-5.9-1.1c-3.2,0-10.9,1.4-10.9,8.3c0,6.5,9,6.6,9,10s-8.1,2.8-10.8,0.6l-1,5.6
		c0,0,2.9,1.4,7.4,1.4c4.5,0,11.2-2.3,11.2-8.6c0-6.5-9.1-7.1-9.1-10C51.1,4.6,57.5,5,60.3,6.5z"/>
	<path class="st1" d="M18.7,14L16.5,2.7c0,0-0.3-2.3-3.1-2.3H3.1L3,0.9c0,0,4.9,1,9.7,4.9C17.2,9.4,18.7,14,18.7,14z"/>
</g>
</svg>
