<?xml version="1.0" encoding="utf-8"?>
<!-- Generator: Adobe Illustrator 22.1.0, SVG Export Plug-In . SVG Version: 6.00 Build 0)  -->
<svg version="1.1" id="Capa_1" xmlns="http://www.w3.org/2000/svg" xmlns:xlink="http://www.w3.org/1999/xlink" x="0px" y="0px"
	 viewBox="0 0 70 45" style="enable-background:new 0 0 70 45;" xml:space="preserve">
<style type="text/css">
	.st0{fill:#C4C4C4;}
	.st1{fill:#46474C;}
	.st2{fill:#FF0000;}
</style>
<g>
	<path class="st0" d="M66,0H4C1.8,0,0,1.8,0,4v37c0,2.2,1.8,4,4,4h62c2.2,0,4-1.8,4-4V4C70,1.8,68.2,0,66,0z"/>
	<rect y="8" class="st1" width="70" height="7"/>
	<polygon class="st2" points="61.8,34 60.1,31.1 61.7,28.3 60.6,28.3 59.6,30.2 58.5,28.3 57.4,28.3 59,31.1 57.4,33.9 55.7,31.1 
		57.3,28.3 56.3,28.3 55.2,30.2 54.1,28.3 53.1,28.3 54.7,31.1 53,33.9 51.4,31.1 53,28.3 51.9,28.3 50.9,30.2 49.8,28.3 48.7,28.3 
		50.3,31.1 48.6,34 49.7,34 50.9,32 52,34 53,34 53.1,34 54,34 55.2,32 56.3,34 57.3,34 57.4,34 58.4,34 59.6,32 60.7,34 	"/>
</g>
</svg>
