<?xml version="1.0" encoding="utf-8"?>
<!-- Generator: Adobe Illustrator 22.1.0, SVG Export Plug-In . SVG Version: 6.00 Build 0)  -->
<svg version="1.1" id="Capa_1" xmlns="http://www.w3.org/2000/svg" xmlns:xlink="http://www.w3.org/1999/xlink" x="0px" y="0px"
	 viewBox="0 0 70 45" style="enable-background:new 0 0 70 45;" xml:space="preserve">
<style type="text/css">
	.st0{fill:#46474C;}
	.st1{fill:#FFFFFF;}
</style>
<g>
	<path class="st0" d="M66,0H4C1.8,0,0,1.8,0,4v37c0,2.2,1.8,4,4,4h62c2.2,0,4-1.8,4-4V4C70,1.8,68.2,0,66,0z"/>
	<g>
		<path class="st1" d="M4.3,34.5c-0.2-0.2-0.3-0.6-0.3-1v-2.3c0-0.4,0.1-0.8,0.3-1c0.2-0.2,0.5-0.4,0.9-0.4c0.4,0,0.7,0.1,0.9,0.4
			s0.3,0.6,0.3,1v2.3c0,0.4-0.1,0.8-0.3,1c-0.2,0.2-0.5,0.4-0.9,0.4S4.5,34.7,4.3,34.5z M5.7,34c0.1-0.1,0.2-0.3,0.2-0.6v-2.3
			c0-0.2-0.1-0.4-0.2-0.6c-0.1-0.1-0.3-0.2-0.5-0.2c-0.2,0-0.4,0.1-0.5,0.2c-0.1,0.1-0.1,0.3-0.1,0.6v2.3c0,0.2,0,0.4,0.2,0.6
			c0.1,0.1,0.3,0.2,0.5,0.2C5.4,34.2,5.6,34.1,5.7,34z"/>
		<path class="st1" d="M7.2,34.5c-0.2-0.2-0.3-0.6-0.3-1v-2.3c0-0.4,0.1-0.8,0.3-1c0.2-0.2,0.5-0.4,0.9-0.4c0.4,0,0.7,0.1,0.9,0.4
			s0.3,0.6,0.3,1v2.3c0,0.4-0.1,0.8-0.3,1c-0.2,0.2-0.5,0.4-0.9,0.4S7.4,34.7,7.2,34.5z M8.6,34c0.1-0.1,0.2-0.3,0.2-0.6v-2.3
			c0-0.2-0.1-0.4-0.2-0.6c-0.1-0.1-0.3-0.2-0.5-0.2c-0.2,0-0.4,0.1-0.5,0.2c-0.1,0.1-0.1,0.3-0.1,0.6v2.3c0,0.2,0,0.4,0.2,0.6
			c0.1,0.1,0.3,0.2,0.5,0.2C8.3,34.2,8.5,34.1,8.6,34z"/>
		<path class="st1" d="M10.1,34.5c-0.2-0.2-0.3-0.6-0.3-1v-2.3c0-0.4,0.1-0.8,0.3-1c0.2-0.2,0.5-0.4,0.9-0.4c0.4,0,0.7,0.1,0.9,0.4
			s0.3,0.6,0.3,1v2.3c0,0.4-0.1,0.8-0.3,1c-0.2,0.2-0.5,0.4-0.9,0.4S10.3,34.7,10.1,34.5z M11.5,34c0.1-0.1,0.2-0.3,0.2-0.6v-2.3
			c0-0.2-0.1-0.4-0.2-0.6c-0.1-0.1-0.3-0.2-0.5-0.2c-0.2,0-0.4,0.1-0.5,0.2c-0.1,0.1-0.1,0.3-0.1,0.6v2.3c0,0.2,0,0.4,0.2,0.6
			c0.1,0.1,0.3,0.2,0.5,0.2C11.2,34.2,11.4,34.1,11.5,34z"/>
		<path class="st1" d="M13,34.5c-0.2-0.2-0.3-0.6-0.3-1v-2.3c0-0.4,0.1-0.8,0.3-1c0.2-0.2,0.5-0.4,0.9-0.4c0.4,0,0.7,0.1,0.9,0.4
			s0.3,0.6,0.3,1v2.3c0,0.4-0.1,0.8-0.3,1c-0.2,0.2-0.5,0.4-0.9,0.4S13.2,34.7,13,34.5z M14.4,34c0.1-0.1,0.2-0.3,0.2-0.6v-2.3
			c0-0.2-0.1-0.4-0.2-0.6c-0.1-0.1-0.3-0.2-0.5-0.2c-0.2,0-0.4,0.1-0.5,0.2c-0.1,0.1-0.1,0.3-0.1,0.6v2.3c0,0.2,0,0.4,0.2,0.6
			c0.1,0.1,0.3,0.2,0.5,0.2C14.2,34.2,14.3,34.1,14.4,34z"/>
		<path class="st1" d="M17.6,32.7v0.7h-2v-0.7H17.6z"/>
		<path class="st1" d="M18.4,34.5c-0.2-0.2-0.3-0.6-0.3-1v-2.3c0-0.4,0.1-0.8,0.3-1c0.2-0.2,0.5-0.4,0.9-0.4c0.4,0,0.7,0.1,0.9,0.4
			c0.2,0.2,0.3,0.6,0.3,1v2.3c0,0.4-0.1,0.8-0.3,1c-0.2,0.2-0.5,0.4-0.9,0.4C18.9,34.9,18.6,34.7,18.4,34.5z M19.8,34
			c0.1-0.1,0.2-0.3,0.2-0.6v-2.3c0-0.2,0-0.4-0.2-0.6c-0.1-0.1-0.3-0.2-0.5-0.2s-0.4,0.1-0.5,0.2c-0.1,0.1-0.2,0.3-0.2,0.6v2.3
			c0,0.2,0.1,0.4,0.2,0.6c0.1,0.1,0.3,0.2,0.5,0.2S19.7,34.1,19.8,34z"/>
		<path class="st1" d="M21.3,34.5c-0.2-0.2-0.3-0.6-0.3-1v-2.3c0-0.4,0.1-0.8,0.3-1c0.2-0.2,0.5-0.4,0.9-0.4c0.4,0,0.7,0.1,0.9,0.4
			s0.3,0.6,0.3,1v2.3c0,0.4-0.1,0.8-0.3,1c-0.2,0.2-0.5,0.4-0.9,0.4S21.5,34.7,21.3,34.5z M22.7,34c0.1-0.1,0.2-0.3,0.2-0.6v-2.3
			c0-0.2-0.1-0.4-0.2-0.6c-0.1-0.1-0.3-0.2-0.5-0.2c-0.2,0-0.4,0.1-0.5,0.2c-0.1,0.1-0.1,0.3-0.1,0.6v2.3c0,0.2,0,0.4,0.2,0.6
			c0.1,0.1,0.3,0.2,0.5,0.2C22.4,34.2,22.6,34.1,22.7,34z"/>
		<path class="st1" d="M24.2,34.5c-0.2-0.2-0.3-0.6-0.3-1v-2.3c0-0.4,0.1-0.8,0.3-1c0.2-0.2,0.5-0.4,0.9-0.4c0.4,0,0.7,0.1,0.9,0.4
			s0.3,0.6,0.3,1v2.3c0,0.4-0.1,0.8-0.3,1c-0.2,0.2-0.5,0.4-0.9,0.4S24.4,34.7,24.2,34.5z M25.6,34c0.1-0.1,0.2-0.3,0.2-0.6v-2.3
			c0-0.2-0.1-0.4-0.2-0.6c-0.1-0.1-0.3-0.2-0.5-0.2c-0.2,0-0.4,0.1-0.5,0.2c-0.1,0.1-0.1,0.3-0.1,0.6v2.3c0,0.2,0,0.4,0.2,0.6
			c0.1,0.1,0.3,0.2,0.5,0.2C25.3,34.2,25.5,34.1,25.6,34z"/>
		<path class="st1" d="M27.1,34.5c-0.2-0.2-0.3-0.6-0.3-1v-2.3c0-0.4,0.1-0.8,0.3-1c0.2-0.2,0.5-0.4,0.9-0.4c0.4,0,0.7,0.1,0.9,0.4
			s0.3,0.6,0.3,1v2.3c0,0.4-0.1,0.8-0.3,1c-0.2,0.2-0.5,0.4-0.9,0.4S27.3,34.7,27.1,34.5z M28.5,34c0.1-0.1,0.2-0.3,0.2-0.6v-2.3
			c0-0.2-0.1-0.4-0.2-0.6c-0.1-0.1-0.3-0.2-0.5-0.2c-0.2,0-0.4,0.1-0.5,0.2c-0.1,0.1-0.1,0.3-0.1,0.6v2.3c0,0.2,0,0.4,0.2,0.6
			c0.1,0.1,0.3,0.2,0.5,0.2C28.2,34.2,28.4,34.1,28.5,34z"/>
		<path class="st1" d="M31.7,32.7v0.7h-2v-0.7H31.7z"/>
		<path class="st1" d="M32.5,34.5c-0.2-0.2-0.3-0.6-0.3-1v-2.3c0-0.4,0.1-0.8,0.3-1c0.2-0.2,0.5-0.4,0.9-0.4c0.4,0,0.7,0.1,0.9,0.4
			c0.2,0.2,0.3,0.6,0.3,1v2.3c0,0.4-0.1,0.8-0.3,1c-0.2,0.2-0.5,0.4-0.9,0.4C33,34.9,32.7,34.7,32.5,34.5z M33.9,34
			c0.1-0.1,0.2-0.3,0.2-0.6v-2.3c0-0.2,0-0.4-0.2-0.6c-0.1-0.1-0.3-0.2-0.5-0.2s-0.4,0.1-0.5,0.2c-0.1,0.1-0.2,0.3-0.2,0.6v2.3
			c0,0.2,0.1,0.4,0.2,0.6c0.1,0.1,0.3,0.2,0.5,0.2S33.8,34.1,33.9,34z"/>
		<path class="st1" d="M35.4,34.5c-0.2-0.2-0.3-0.6-0.3-1v-2.3c0-0.4,0.1-0.8,0.3-1c0.2-0.2,0.5-0.4,0.9-0.4c0.4,0,0.7,0.1,0.9,0.4
			c0.2,0.2,0.3,0.6,0.3,1v2.3c0,0.4-0.1,0.8-0.3,1c-0.2,0.2-0.5,0.4-0.9,0.4C35.9,34.9,35.6,34.7,35.4,34.5z M36.8,34
			c0.1-0.1,0.2-0.3,0.2-0.6v-2.3c0-0.2,0-0.4-0.2-0.6c-0.1-0.1-0.3-0.2-0.5-0.2c-0.2,0-0.4,0.1-0.5,0.2c-0.1,0.1-0.1,0.3-0.1,0.6
			v2.3c0,0.2,0,0.4,0.2,0.6c0.1,0.1,0.3,0.2,0.5,0.2C36.5,34.2,36.7,34.1,36.8,34z"/>
		<path class="st1" d="M38.3,34.5c-0.2-0.2-0.3-0.6-0.3-1v-2.3c0-0.4,0.1-0.8,0.3-1c0.2-0.2,0.5-0.4,0.9-0.4c0.4,0,0.7,0.1,0.9,0.4
			c0.2,0.2,0.3,0.6,0.3,1v2.3c0,0.4-0.1,0.8-0.3,1c-0.2,0.2-0.5,0.4-0.9,0.4C38.8,34.9,38.5,34.7,38.3,34.5z M39.7,34
			c0.1-0.1,0.2-0.3,0.2-0.6v-2.3c0-0.2,0-0.4-0.2-0.6c-0.1-0.1-0.3-0.2-0.5-0.2c-0.2,0-0.4,0.1-0.5,0.2c-0.1,0.1-0.1,0.3-0.1,0.6
			v2.3c0,0.2,0,0.4,0.2,0.6c0.1,0.1,0.3,0.2,0.5,0.2C39.4,34.2,39.6,34.1,39.7,34z"/>
		<path class="st1" d="M41.2,34.5c-0.2-0.2-0.3-0.6-0.3-1v-2.3c0-0.4,0.1-0.8,0.3-1c0.2-0.2,0.5-0.4,0.9-0.4c0.4,0,0.7,0.1,0.9,0.4
			c0.2,0.2,0.3,0.6,0.3,1v2.3c0,0.4-0.1,0.8-0.3,1c-0.2,0.2-0.5,0.4-0.9,0.4C41.7,34.9,41.4,34.7,41.2,34.5z M42.6,34
			c0.1-0.1,0.2-0.3,0.2-0.6v-2.3c0-0.2,0-0.4-0.2-0.6c-0.1-0.1-0.3-0.2-0.5-0.2c-0.2,0-0.4,0.1-0.5,0.2c-0.1,0.1-0.1,0.3-0.1,0.6
			v2.3c0,0.2,0,0.4,0.2,0.6c0.1,0.1,0.3,0.2,0.5,0.2C42.3,34.2,42.5,34.1,42.6,34z"/>
		<path class="st1" d="M45.8,32.7v0.7h-2v-0.7H45.8z"/>
		<path class="st1" d="M46.6,34.5c-0.2-0.2-0.3-0.6-0.3-1v-2.3c0-0.4,0.1-0.8,0.3-1c0.2-0.2,0.5-0.4,0.9-0.4c0.4,0,0.7,0.1,0.9,0.4
			c0.2,0.2,0.3,0.6,0.3,1v2.3c0,0.4-0.1,0.8-0.3,1c-0.2,0.2-0.5,0.4-0.9,0.4C47.1,34.9,46.8,34.7,46.6,34.5z M48,34
			c0.1-0.1,0.2-0.3,0.2-0.6v-2.3c0-0.2,0-0.4-0.2-0.6c-0.1-0.1-0.3-0.2-0.5-0.2c-0.2,0-0.4,0.1-0.5,0.2c-0.1,0.1-0.1,0.3-0.1,0.6
			v2.3c0,0.2,0,0.4,0.2,0.6c0.1,0.1,0.3,0.2,0.5,0.2C47.7,34.2,47.9,34.1,48,34z"/>
		<path class="st1" d="M49.5,34.5c-0.2-0.2-0.3-0.6-0.3-1v-2.3c0-0.4,0.1-0.8,0.3-1c0.2-0.2,0.5-0.4,0.9-0.4c0.4,0,0.7,0.1,0.9,0.4
			c0.2,0.2,0.3,0.6,0.3,1v2.3c0,0.4-0.1,0.8-0.3,1c-0.2,0.2-0.5,0.4-0.9,0.4C50,34.9,49.7,34.7,49.5,34.5z M50.9,34
			c0.1-0.1,0.2-0.3,0.2-0.6v-2.3c0-0.2,0-0.4-0.2-0.6c-0.1-0.1-0.3-0.2-0.5-0.2c-0.2,0-0.4,0.1-0.5,0.2c-0.1,0.1-0.1,0.3-0.1,0.6
			v2.3c0,0.2,0,0.4,0.2,0.6c0.1,0.1,0.3,0.2,0.5,0.2C50.6,34.2,50.8,34.1,50.9,34z"/>
		<path class="st1" d="M52.4,34.5c-0.2-0.2-0.3-0.6-0.3-1v-2.3c0-0.4,0.1-0.8,0.3-1c0.2-0.2,0.5-0.4,0.9-0.4c0.4,0,0.7,0.1,0.9,0.4
			c0.2,0.2,0.3,0.6,0.3,1v2.3c0,0.4-0.1,0.8-0.3,1c-0.2,0.2-0.5,0.4-0.9,0.4C52.9,34.9,52.6,34.7,52.4,34.5z M53.8,34
			c0.1-0.1,0.2-0.3,0.2-0.6v-2.3c0-0.2,0-0.4-0.2-0.6c-0.1-0.1-0.3-0.2-0.5-0.2c-0.2,0-0.4,0.1-0.5,0.2c-0.1,0.1-0.1,0.3-0.1,0.6
			v2.3c0,0.2,0,0.4,0.2,0.6c0.1,0.1,0.3,0.2,0.5,0.2C53.5,34.2,53.7,34.1,53.8,34z"/>
		<path class="st1" d="M55.3,34.5c-0.2-0.2-0.3-0.6-0.3-1v-2.3c0-0.4,0.1-0.8,0.3-1c0.2-0.2,0.5-0.4,0.9-0.4c0.4,0,0.7,0.1,0.9,0.4
			c0.2,0.2,0.3,0.6,0.3,1v2.3c0,0.4-0.1,0.8-0.3,1c-0.2,0.2-0.5,0.4-0.9,0.4C55.8,34.9,55.5,34.7,55.3,34.5z M56.7,34
			c0.1-0.1,0.2-0.3,0.2-0.6v-2.3c0-0.2,0-0.4-0.2-0.6c-0.1-0.1-0.3-0.2-0.5-0.2c-0.2,0-0.4,0.1-0.5,0.2c-0.1,0.1-0.1,0.3-0.1,0.6
			v2.3c0,0.2,0,0.4,0.2,0.6c0.1,0.1,0.3,0.2,0.5,0.2C56.4,34.2,56.6,34.1,56.7,34z"/>
	</g>
</g>
</svg>
